<svg id="layer_1" data-name="layer 1" xmlns="http://www.w3.org/2000/svg" viewBox="0 0 777.33 673.21"><defs><style>.cls-1{fill:#fff;}.cls-2{fill:#dab300;}.cls-3{fill:#231815;}</style></defs><title>koiki-logo</title><polygon class="cls-1" points="563.56 33.66 738.47 336.6 563.56 639.53 213.77 639.53 38.87 336.6 213.77 33.66 563.56 33.66"/><rect class="cls-2" x="271.07" y="76.25" width="13.62" height="525.4"/><rect class="cls-3" x="270.97" y="333.03" width="13.6" height="258.24"/><rect class="cls-2" x="342.35" y="245.57" width="11.54" height="102.23" transform="translate(124.05 -174.75) rotate(21.89)"/><polygon class="cls-3" points="246.08 420.33 237.15 416.74 197.55 515.09 203.59 525.57 246.08 420.33"/><rect class="cls-3" x="344.44" y="487.91" width="9.38" height="98.7" transform="translate(944.33 676.48) rotate(141.73)"/><rect class="cls-2" x="236.19" y="241.08" width="12.51" height="102.23" transform="translate(564.68 406.59) rotate(158.11)"/><path class="cls-2" d="M538.32,506.35c.89,8.51,1.5,17.39,1.69,26.56l-6.29.12v-.19c-.07-12-9.48-21.65-21-21.65l0-6.14c8.92.1,17.46.56,25.56,1.31Z" transform="translate(-11.67 -66.35)"/><path class="cls-2" d="M539.48,559.7q.69-10.34.63-21.57c0-1.74,0-3.48-.1-5.22-.19-9.17-.8-18-1.69-26.56,39.2,3.63,68.44,13.83,84.26,20.63l-8.95,15.45A342.7,342.7,0,0,1,539.48,559.7Z" transform="translate(-11.67 -66.35)"/><path class="cls-2" d="M485.35,533.07c0,1.79,0,3.6,0,5.42.07,7.93.39,15.48.92,22.59-59.69-4.14-94.64-26.92-94.64-26.92s30.47-23.58,94.9-28.32C485.84,514.45,485.4,523.52,485.35,533.07Z" transform="translate(-11.67 -66.35)"/><path class="cls-2" d="M486.27,561.08c-.53-7.11-.85-14.66-.92-22.59,0-1.81,0-3.63,0-5.42l6.29,0c.07,12,9.55,21.72,21.19,21.65l1.09,0,.24,6.84c-2.42.07-4.84.12-7.28.15Q496.14,561.8,486.27,561.08Z" transform="translate(-11.67 -66.35)"/><path class="cls-2" d="M539.48,559.7c-4.06,61.62-26,97.73-26,97.73s-22.35-31-27.21-96.35q9.87.73,20.61.65c2.44,0,4.86-.07,7.28-.15C522.86,561.32,531.35,560.64,539.48,559.7Z" transform="translate(-11.67 -66.35)"/><path class="cls-2" d="M486.54,505.84c5.22-62.71,25.35-99.71,25.35-99.71s20.17,41.65,26.41,100.22c-8.1-.75-16.64-1.21-25.56-1.31-2.06,0-4.11,0-6.22,0Q496,505.15,486.54,505.84Z" transform="translate(-11.67 -66.35)"/><path class="cls-2" d="M540.11,538.13q.07,11.25-.63,21.57c-8.13.94-16.62,1.62-25.32,1.89l-.24-6.84c11.05-.65,19.81-10.13,19.81-21.72l6.29-.12C540.06,534.64,540.11,536.38,540.11,538.13Z" transform="translate(-11.67 -66.35)"/><path class="cls-3" d="M513.48,657.43h33.76l66.39-115a233,233,0,0,0,22.27-9L555.8,672.23H244.86L89.4,403,244.86,133.68H555.8l76.64,132.78-1,.56H615.68L547.24,148.48H465.35v-.15H451.93v.15H253.42L106.5,403l3,5.18,143.92,249.3Z" transform="translate(-11.67 -66.35)"/><path class="cls-2" d="M485.35,533.07c0-9.55.48-18.62,1.19-27.23q9.5-.69,20-.8c2.1,0,4.16,0,6.22,0l0,6.14h-.12c-11.63.1-21,9.92-20.92,21.94Z" transform="translate(-11.67 -66.35)"/><path class="cls-3" d="M594.67,66.35,789,403,594.67,739.56H206L11.67,403,206,66.35ZM750.13,403,575.22,100H225.44L50.53,403,225.44,705.9H575.22Z" transform="translate(-11.67 -66.35)"/><path class="cls-2" d="M632.44,266.46,711.26,403,635.93,533.43A132.71,132.71,0,0,0,622.58,527l68.59-118.84h2.66v-4.6l.34-.58-.34-.58v-5.83h-3.36L622.65,279.11h8.83V267Z" transform="translate(-11.67 -66.35)"/><polygon class="cls-2" points="682.16 337.19 682.16 341.78 679.5 341.78 682.16 337.19"/><polygon class="cls-2" points="682.16 336.02 682.16 337.19 679.5 341.78 563.27 341.78 563.27 334.55 575.19 334.55 575.19 330.2 678.8 330.2 682.16 336.02"/><polygon class="cls-2" points="682.16 330.2 682.16 336.02 678.8 330.2 682.16 330.2"/><path class="cls-2" d="M635.93,533.43l0,0a233,233,0,0,1-22.27,9L622.58,527A132.71,132.71,0,0,1,635.93,533.43Z" transform="translate(-11.67 -66.35)"/><polygon class="cls-2" points="619.81 200.66 619.81 212.75 610.98 212.75 604.02 200.66 619.81 200.66"/><polygon class="cls-2" points="604.02 200.66 610.98 212.75 575.19 212.75 575.19 200.95 575.19 200.66 604.02 200.66"/><rect class="cls-2" x="563.27" y="330.2" width="11.92" height="4.35"/><rect class="cls-2" x="563.27" y="212.75" width="11.92" height="117.44"/><rect class="cls-2" x="563.27" y="200.95" width="11.92" height="11.8"/><polygon class="cls-2" points="575.19 200.66 575.19 200.95 563.27 200.95 563.27 212.75 453.68 212.75 453.68 200.66 575.19 200.66"/><polygon class="cls-2" points="453.68 333.15 453.68 341.78 97.83 341.78 94.83 336.61 99.01 329.4 440.26 329.4 440.26 333.15 453.68 333.15"/><rect class="cls-2" x="440.26" y="329.4" width="13.42" height="3.75"/><rect class="cls-2" x="440.26" y="212.75" width="13.42" height="116.64"/><rect class="cls-2" x="440.26" y="200.66" width="13.42" height="12.09"/><rect class="cls-2" x="440.26" y="82.13" width="13.42" height="118.53"/><rect class="cls-2" x="440.26" y="81.99" width="13.42" height="0.15"/><rect class="cls-2" x="376.05" y="200.66" width="64.21" height="12.09"/></svg>
